<svg xmlns="http://www.w3.org/2000/svg" width="256" height="256" viewBox="0 0 256 256">
  <defs>
    <linearGradient id="bg" x1="32" y1="24" x2="224" y2="232" gradientUnits="userSpaceOnUse">
      <stop stop-color="#3D8ED0"/>
      <stop offset="1" stop-color="#17365D"/>
    </linearGradient>
  </defs>
  <rect x="8" y="8" width="240" height="240" rx="54" fill="url(#bg)"/>
  <path d="M55 72a14 14 0 0 1 14-14h118a14 14 0 0 1 14 14v38a22 22 0 0 0 0 44v30a14 14 0 0 1-14 14H69a14 14 0 0 1-14-14v-30a22 22 0 0 0 0-44V72Z" fill="#fff"/>
  <path d="M91 129l23 23 51-55" fill="none" stroke="#2E75B6" stroke-width="15" stroke-linecap="round" stroke-linejoin="round"/>
  <path d="M177 68v120" stroke="#D9EAF7" stroke-width="6" stroke-dasharray="10 10"/>
</svg>
